<?xml version="1.0" encoding="UTF-8"?>
<svg id="DDT_USCITA" data-name="DDT USCITA" xmlns="http://www.w3.org/2000/svg" version="1.1" viewBox="0 0 384 512">
  <defs>
    <style>
      .cls-1 {
        fill: #1e3050;
        stroke-width: 0px;
      }
    </style>
  </defs>
  <g>
    <path class="cls-1" d="M8.9,512.2c-2.7,0-4.9-.6-6.5-1.9C.8,509,0,507.5,0,505.7v-102.5c0-1.8.8-3.3,2.4-4.6,1.6-1.3,3.8-1.9,6.5-1.9h27.9c6.9,0,13.2,1.2,18.8,3.5,5.6,2.4,10.1,6.2,13.4,11.5s5,12.4,5,21.2v42.8c0,8.8-1.7,15.9-5,21.2s-7.8,9.1-13.4,11.5c-5.6,2.4-11.9,3.6-18.8,3.6H8.9v.2ZM20.4,494.2h16.5c5.1,0,9.2-1.5,12.1-4.5s4.4-7.6,4.4-13.8v-42.8c0-6.2-1.5-10.8-4.4-13.8s-7-4.5-12.1-4.5h-16.5v79.5h0Z"/>
    <path class="cls-1" d="M101.8,512.2c-2.7,0-4.9-.6-6.5-1.9s-2.4-2.8-2.4-4.6v-102.5c0-1.8.8-3.3,2.4-4.6,1.6-1.3,3.8-1.9,6.5-1.9h27.9c6.9,0,13.2,1.2,18.8,3.5,5.6,2.4,10.1,6.2,13.4,11.5,3.3,5.3,5,12.4,5,21.2v42.8c0,8.8-1.6,15.9-5,21.2-3.3,5.3-7.8,9.1-13.4,11.5-5.6,2.4-11.9,3.6-18.8,3.6h-27.9s0,.2,0,.2ZM113.2,494.2h16.5c5.1,0,9.2-1.5,12.1-4.5,2.9-3,4.4-7.6,4.4-13.8v-42.8c0-6.2-1.5-10.8-4.4-13.8s-7-4.5-12.1-4.5h-16.5v79.5h0Z"/>
    <path class="cls-1" d="M215.3,512.2c-2.6,0-5-.5-7.1-1.7s-3.1-2.8-3.1-5v-90.4h-23.1c-2,0-3.6-1-4.7-2.8-1.1-1.9-1.7-4-1.7-6.5s.5-4.3,1.6-6.2c1.1-2,2.7-2.9,4.9-2.9h66.6c2.3,0,3.9,1,4.9,2.9s1.5,4,1.5,6.2-.6,4.6-1.6,6.5c-1.1,1.9-2.7,2.8-4.8,2.8h-23v90.4c0,2.2-1.1,3.9-3.2,5-2.2,1.1-4.5,1.7-7,1.7h-.2,0Z"/>
  </g>
  <path class="cls-1" d="M317.6,0H66.6C29.9,0,0,29.8,0,66.5v301.5h244.5c15.7,0,28.5,12.8,28.5,28.5v115.5h44.5c36.7,0,66.5-29.8,66.5-66.5V66.5c0-36.7-29.8-66.5-66.5-66.5h.1ZM192.1,258c-66.6,0-120.5-53.9-120.5-120.5S125.5,17,192.1,17s120.5,53.9,120.5,120.5-53.9,120.5-120.5,120.5Z"/>
  <path class="cls-1" d="M92.8,144.2c5.4,16.1,24,20.9,37,9.3,11.9-10.6,22.9-22,34.4-33.1,1-1.5,1.8-1.4,2.5,1l.5,3.4c.1,28.2.3,56.2.1,84.4-.1.9-.2,1.8-.2,2.8,0,12.7,10.3,23,23,23s23-10.3,23-23,0-2.2-.2-3.3c-.3-29.6,0-59.3,2.1-90.8,11.3,11.2,22.6,22.4,33.9,33.5,5,4.9,11.7,8.1,18.8,8.2,7.6.2,13.1-3,17.5-9.5,6.2-9.3,5.9-19.5-2.3-27.9-25.3-25.9-50.9-51.6-76.9-76.8h-.1c-9.5-9.3-21.4-8.9-30.9.4-25.7,25.1-51,50.5-76.2,76.1-6.1,6.1-8.6,13.7-5.7,22.4h-.3Z"/>
</svg>