<?xml version="1.0" encoding="UTF-8"?>
<svg id="DOCUMENTI_MACERO" data-name="DOCUMENTI MACERO" xmlns="http://www.w3.org/2000/svg" version="1.1" viewBox="0 0 384 512">
  <defs>
    <style>
      .cls-1 {
        fill: #1f3151;
        stroke-width: 0px;
      }
    </style>
  </defs>
  <path class="cls-1" d="M142.2,133.9c.8,12.8-.5,22.3,1,31.7,2.9,18.3,18.5,30.6,37.5,29.6,17.6-.9,32.3-16.2,33.2-34.1.7-12.6-3.5-23.1-12.6-31.9-7.9-7.7-16-15.3-23.2-23.7-22.3-25.9-23.5-60.9-3.4-88.4,3.1-4.3,6.4-8.5,9.7-12.7,2.6-3.3,6-5.1,10.3-4.1,4.5,1,7.8,3.4,9.2,8.2,1.1,3.9,1,7.9.6,11.7-.9,11.1,3.9,19.2,11.7,26.5,14.6,13.5,29.2,27.1,43.4,41.1,26.5,26,41.1,57.6,42.5,94.7,2.1,52.3-34.6,92.7-79.6,99.5-36.6,5.5-70.4-.3-98.7-26.1-18.3-16.7-29-37.4-32.8-61.9-4-25.5,0-49.4,13.4-71.7,4.4-7.3,9.8-13.8,15.7-19.9,3.9-4,8.5-5.6,13.9-3.7,5.5,2,8,6.2,8.1,11.8.1,8.9,0,17.8,0,23.3h0Z"/>
  <g>
    <path class="cls-1" d="M192,512.1c29.9,0,59.8-.1,89.8.1,5,0,6.2-1.1,6.1-6.1-.3-27.5-.3-55,0-82.6,0-5.4-1-7.5-6.9-7.5-59.3.2-118.6.2-177.9,0-5.5,0-7.4,1.6-7.4,7.3.2,27.2.3,54.5,0,81.8,0,5.8,1.8,7.1,7.4,7,29.6-.3,59.3-.1,89-.1h0Z"/>
    <path class="cls-1" d="M240,402.8c11.8,0,21.1-.1,30.5,0,4.4,0,6.8-1.5,8-6,5.5-21.2,11-42.3,16.9-63.3,1.4-4.8-.2-6-4.3-7.1-57.2-15.2-114.4-30.4-171.5-46-6.6-1.8-8.5,0-10.1,6.3-6.5,25.6-13.5,51-20.7,76.4-1.5,5.2-.2,7,4.9,8.4,37.1,9.9,74.1,20.3,111.3,30,12.2,3.2,25.1.8,35.2,1.3h0Z"/>
    <path class="cls-1" d="M71.4,464.6c0-14.1-.2-28.3,0-42.4,0-4.5-1.2-6.2-5.8-6.1-14.9.5-29.9-.7-44.8.7-12.6,1.2-20.7,9.3-20.9,21.9-.3,17.1-.3,34.2,0,51.2.2,11.7,8.3,20.9,19.6,21.5,16,.8,32,.4,48,.7,4.2,0,3.8-2.4,3.8-5.2,0-14.1,0-28.3,0-42.4h0Z"/>
    <path class="cls-1" d="M312.2,464.3c0,13.6.2,27.3-.1,40.9-.1,5.7,1.7,7.2,7.4,7,13.6-.5,27.3,0,40.9-.4,15-.5,23.8-9.5,24-24.3.2-15.5.2-31,0-46.5-.2-14.6-8.5-23.5-23.1-24.2-14.1-.7-28.3-.3-42.5-.7-5.5-.2-6.7,2.3-6.6,7.2.2,13.6,0,27.3,0,40.9h0Z"/>
    <path class="cls-1" d="M39.3,259.2c-14.8,0-23.3,7-26.8,19.3-4,14.1-7.8,28.2-11.6,42.3-4.1,15.2,2.7,27,18.1,31.2,12.9,3.5,25.8,6.5,38.6,10.2,3.9,1.1,5.5.8,6.6-3.5,7.3-27.8,14.9-55.5,22.4-83.3.5-1.9,1.6-3.7-1.2-4.4-16.5-4.2-33-8.4-46.2-11.8h0Z"/>
    <path class="cls-1" d="M339.1,402.8c10.1,0,20.3-.2,30.4,0,4.9.1,7.3-1.7,8.4-6.4,1.6-7.3,3.7-14.5,5.5-21.7,2.8-11.5-2.7-23.6-13.8-27.2-14.7-4.7-29.8-8.1-44.7-12.3-3.9-1.1-4.8,1.5-5.5,4-5.3,19.5-10.3,39.1-15.8,58.6-1.4,4.9,1.1,4.9,4.3,4.9,10.4,0,20.8,0,31.2,0h0Z"/>
  </g>
</svg>