<?xml version="1.0" encoding="UTF-8"?>
<svg id="FATTURE_USCITA" data-name="FATTURE USCITA" xmlns="http://www.w3.org/2000/svg" version="1.1" viewBox="0 0 384 512">
  <defs>
    <style>
      .cls-1 {
        fill: #1e3050;
        stroke-width: 0px;
      }
    </style>
  </defs>
  <g>
    <path class="cls-1" d="M10.3,511.3c-2.6,0-4.9-.6-7-1.7S0,507,0,504.9v-102.7c0-2.2.9-3.9,2.9-5,1.9-1.1,4-1.7,6.2-1.7h55.3c2.3,0,4,.9,5,2.9,1,1.9,1.5,3.9,1.5,6s-.6,4.7-1.7,6.5c-1.1,1.8-2.7,2.6-4.8,2.6H20.6v31.7h24.2c2.1,0,3.7.8,4.8,2.5s1.7,3.6,1.7,5.8-.5,3.6-1.5,5.3-2.6,2.6-5,2.6h-24.2v43.4c0,2.1-1.1,3.7-3.1,4.8s-4.5,1.7-7.1,1.7h0v-.2Z"/>
    <path class="cls-1" d="M118.1,511.3c-2.6,0-5-.6-7.1-1.7s-3.1-2.8-3.1-5v-90.6h-23.2c-2,0-3.6-.9-4.8-2.9-1.2-1.9-1.7-4.1-1.7-6.5s.5-4.3,1.6-6.3,2.6-2.9,4.9-2.9h67c2.3,0,4,1,5,2.9s1.5,4.1,1.5,6.3-.6,4.5-1.7,6.5c-1.2,1.9-2.7,2.9-4.8,2.9h-23.2v90.6c0,2.2-1.1,3.9-3.2,5-2.2,1.1-4.5,1.7-7,1.7h0Z"/>
  </g>
  <path class="cls-1" d="M317.6,0H66.6C29.9,0,0,29.8,0,66.5v301.5h157.5c15.7,0,28.5,12.8,28.5,28.5v115.5h131.5c36.7,0,66.5-29.8,66.5-66.5V66.5c0-36.7-29.8-66.5-66.5-66.5h.1ZM192.1,258c-66.6,0-120.5-53.9-120.5-120.5S125.5,17,192.1,17s120.5,53.9,120.5,120.5-53.9,120.5-120.5,120.5Z"/>
  <path class="cls-1" d="M92.8,144.2c5.4,16.1,24,20.9,37,9.3,11.9-10.6,22.9-22,34.4-33.1,1-1.5,1.8-1.4,2.5,1l.5,3.4c.1,28.2.3,56.2.1,84.4-.1.9-.2,1.8-.2,2.8,0,12.7,10.3,23,23,23s23-10.3,23-23,0-2.2-.2-3.3c-.3-29.6,0-59.3,2.1-90.8,11.3,11.2,22.6,22.4,33.9,33.5,5,4.9,11.7,8.1,18.8,8.2,7.6.2,13.1-3,17.5-9.5,6.2-9.3,5.9-19.5-2.3-27.9-25.3-25.9-50.9-51.6-76.9-76.8h-.1c-9.5-9.3-21.4-8.9-30.9.4-25.7,25.1-51,50.5-76.2,76.1-6.1,6.1-8.6,13.7-5.7,22.4h-.3Z"/>
</svg>