<?xml version="1.0" encoding="UTF-8"?>
<svg id="NOTE_DI_CREDITO_ENTRATA" data-name="NOTE DI CREDITO ENTRATA" xmlns="http://www.w3.org/2000/svg" version="1.1" viewBox="0 0 384 512">
  <g>
    <path d="M12.88,512.02c-2.85,0-5.42-.64-7.9-1.84-2.39-1.19-3.58-3.12-3.58-5.51v-114.13c0-2.48,1.19-4.32,3.58-5.51,2.39-1.19,5.05-1.74,7.9-1.74s5.14.28,6.98.92,3.49,1.74,5.14,3.49c1.56,1.74,3.31,4.32,5.05,7.8l33.97,65.65v-70.61c0-2.57,1.19-4.41,3.58-5.51,2.39-1.1,5.05-1.65,7.8-1.65s5.6.55,7.9,1.65c2.39,1.1,3.58,2.94,3.58,5.51v114.13c0,2.48-1.19,4.32-3.58,5.51s-4.96,1.84-7.9,1.84-5.14-.55-7.53-1.56c-2.3-1.01-4.13-2.94-5.51-5.6l-38.01-70.79v70.61c0,2.48-1.19,4.32-3.49,5.51s-4.96,1.84-7.9,1.84h-.09Z" fill="#1e3050" stroke-width="0"/>
    <path d="M148.95,512.02c-7.25,0-14.05-1.29-20.29-3.95-6.24-2.66-11.2-6.89-14.87-12.85s-5.51-13.86-5.51-23.69v-48.75c0-9.82,1.84-17.72,5.51-23.69s8.63-10.19,14.87-12.85c6.24-2.66,13.04-3.95,20.38-3.95s15.52,1.38,21.76,4.13c6.24,2.75,11.2,6.61,14.78,11.57s5.42,10.83,5.42,17.81-.92,7.62-2.85,9.09c-1.84,1.47-4.77,2.2-8.63,2.2s-5.88-.55-7.99-1.65c-2.2-1.1-3.31-2.94-3.4-5.51,0-1.38-.18-3.12-.64-5.05s-1.19-3.86-2.39-5.69c-1.19-1.84-2.94-3.49-5.42-4.77-2.39-1.29-5.69-1.93-9.92-1.93-5.97,0-10.56,1.65-13.77,5.05s-4.77,8.45-4.77,15.43v48.75c0,7.07,1.65,12.21,4.87,15.52s7.9,4.96,13.96,4.96,7.16-.64,9.55-1.93,4.13-2.94,5.23-4.87c1.1-1.93,1.84-3.95,2.3-6.06.37-2.11.73-4.13,1.01-5.97.28-2.85,1.38-4.68,3.49-5.69s4.68-1.47,7.71-1.47,6.89.73,8.81,2.3c1.84,1.56,2.85,4.5,2.85,9,0,7.07-1.84,13.22-5.42,18.46-3.58,5.33-8.54,9.37-14.87,12.12s-13.59,4.22-21.85,4.22h0l.09-.28Z" fill="#1e3050" stroke-width="0"/>
  </g>
  <path d="M317.6,0H66.6C29.9,0,0,29.8,0,66.5v301.5h186c15.7,0,28.5,12.8,28.5,28.5v115.5h103c36.7,0,66.5-29.8,66.5-66.5V66.5c0-36.7-29.8-66.5-66.5-66.5h.1ZM192.1,258c-66.6,0-120.5-53.9-120.5-120.5S125.5,17,192.1,17s120.5,53.9,120.5,120.5-53.9,120.5-120.5,120.5Z" fill="#1e3050" stroke-width="0"/>
  <path d="M92.8,144.2c5.4,16.1,24,20.9,37,9.3,11.9-10.6,22.9-22,34.4-33.1,1-1.5,1.8-1.4,2.5,1l.5,3.4c.1,28.2.3,56.2.1,84.4-.1.9-.2,1.8-.2,2.8,0,12.7,10.3,23,23,23s23-10.3,23-23,0-2.2-.2-3.3c-.3-29.6,0-59.3,2.1-90.8,11.3,11.2,22.6,22.4,33.9,33.5,5,4.9,11.7,8.1,18.8,8.2,7.6.2,13.1-3,17.5-9.5,6.2-9.3,5.9-19.5-2.3-27.9-25.3-25.9-50.9-51.6-76.9-76.8h-.1c-9.5-9.3-21.4-8.9-30.9.4-25.7,25.1-51,50.5-76.2,76.1-6.1,6.1-8.6,13.7-5.7,22.4h-.3v-.1Z" fill="#1e3050" stroke-width="0"/>
</svg>