<?xml version="1.0" encoding="UTF-8"?>
<svg id="NOTE_DI_CREDITO_ENTRATA" data-name="NOTE DI CREDITO ENTRATA" xmlns="http://www.w3.org/2000/svg" version="1.1" viewBox="0 0 384 512">
  <defs>
    <style>
      .cls-1 {
        fill: #1e3050;
        stroke-width: 0px;
      }
    </style>
  </defs>
  <g>
    <path class="cls-1" d="M189.9,512c-3.1,0-5.9-.7-8.6-2-2.6-1.3-3.9-3.4-3.9-6v-124.3c0-2.7,1.3-4.7,3.9-6,2.6-1.3,5.5-1.9,8.6-1.9s5.6.3,7.6,1,3.8,1.9,5.6,3.8c1.7,1.9,3.6,4.7,5.5,8.5l37,71.5v-76.9c0-2.8,1.3-4.8,3.9-6,2.6-1.2,5.5-1.8,8.5-1.8s6.1.6,8.6,1.8c2.6,1.2,3.9,3.2,3.9,6v124.3c0,2.7-1.3,4.7-3.9,6-2.6,1.3-5.4,2-8.6,2s-5.6-.6-8.2-1.7c-2.5-1.1-4.5-3.2-6-6.1l-41.4-77.1v76.9c0,2.7-1.3,4.7-3.8,6s-5.4,2-8.6,2h0Z"/>
    <path class="cls-1" d="M338.1,512c-7.9,0-15.3-1.4-22.1-4.3-6.8-2.9-12.2-7.5-16.2-14-4-6.5-6-15.1-6-25.8v-53.1c0-10.7,2-19.3,6-25.8,4-6.5,9.4-11.1,16.2-14,6.8-2.9,14.2-4.3,22.2-4.3s16.9,1.5,23.7,4.5,12.2,7.2,16.1,12.6c3.9,5.4,5.9,11.8,5.9,19.4s-1,8.3-3.1,9.9c-2,1.6-5.2,2.4-9.4,2.4s-6.4-.6-8.7-1.8c-2.4-1.2-3.6-3.2-3.7-6,0-1.5-.2-3.4-.7-5.5s-1.3-4.2-2.6-6.2c-1.3-2-3.2-3.8-5.9-5.2-2.6-1.4-6.2-2.1-10.8-2.1-6.5,0-11.5,1.8-15,5.5s-5.2,9.2-5.2,16.8v53.1c0,7.7,1.8,13.3,5.3,16.9,3.5,3.6,8.6,5.4,15.2,5.4s7.8-.7,10.4-2.1,4.5-3.2,5.7-5.3c1.2-2.1,2-4.3,2.5-6.6.4-2.3.8-4.5,1.1-6.5.3-3.1,1.5-5.1,3.8-6.2,2.3-1.1,5.1-1.6,8.4-1.6s7.5.8,9.6,2.5c2,1.7,3.1,4.9,3.1,9.8,0,7.7-2,14.4-5.9,20.1-3.9,5.8-9.3,10.2-16.2,13.2s-14.8,4.6-23.8,4.6h0s0,0,0,0Z"/>
  </g>
  <path class="cls-1" d="M.9,66.5v379c0,36.7,29.8,66.5,66.5,66.5h89.4v-115.5c0-15.7,12.8-28.5,28.5-28.5h199.6V66.5C384.9,29.8,355.2,0,318.4,0H67.4C30.7,0,.9,29.8.9,66.5Z"/>
</svg>