<?xml version="1.0" encoding="UTF-8"?>
<svg id="Livello_1" data-name="Livello 1" xmlns="http://www.w3.org/2000/svg" version="1.1" viewBox="0 0 384 512">
  <defs>
    <style>
      .cls-1 {
        fill: #1e3050;
        stroke-width: 0px;
      }
    </style>
  </defs>
  <path class="cls-1" d="M317.4,0H66.4C29.7,0,0,29.8,0,66.5v301.5h199.6c15.7,0,28.5,12.8,28.5,28.5v115.5h89.4c36.7,0,66.5-29.8,66.5-66.5V66.5c0-36.7-29.8-66.5-66.5-66.5h-.1ZM191.9,258c-66.6,0-120.5-53.9-120.5-120.5S125.4,17,191.9,17s120.5,53.9,120.5,120.5-53.9,120.5-120.5,120.5Z"/>
  <path class="cls-1" d="M93.8,144.2c5.4,16.1,24,20.9,37,9.3,11.9-10.6,22.9-22,34.4-33.1,1-1.5,1.8-1.4,2.5,1l.5,3.4c.1,28.2.3,56.2.1,84.4-.1.9-.2,1.8-.2,2.8,0,12.7,10.3,23,23,23s23-10.3,23-23,0-2.2-.2-3.3c-.3-29.6,0-59.3,2.1-90.8,11.3,11.2,22.6,22.4,33.9,33.5,5,4.9,11.7,8.1,18.8,8.2,7.6.2,13.1-3,17.5-9.5,6.2-9.3,5.9-19.5-2.3-27.9-25.3-25.9-50.9-51.6-76.9-76.8h-.1c-9.5-9.3-21.4-8.9-30.9.4-25.7,25.1-51,50.5-76.2,76.1-6.1,6.1-8.6,13.7-5.7,22.4h-.3Z"/>
  <g>
    <path class="cls-1" d="M37.4,512c-7,0-13.3-1.2-18.9-3.5-5.6-2.4-10-6.2-13.4-11.6-3.4-5.3-5-12.5-5-21.4v-44c0-8.9,1.7-16,5-21.4,3.3-5.3,7.8-9.2,13.4-11.6,5.6-2.4,11.9-3.5,18.9-3.5s13.3,1.2,19,3.5c5.7,2.4,10.1,6.2,13.4,11.6,3.3,5.3,4.9,12.5,4.9,21.4v44c0,8.9-1.6,16-4.9,21.4s-7.8,9.2-13.4,11.6c-5.7,2.4-12,3.5-19,3.5ZM37.4,493.9c5.2,0,9.3-1.5,12.2-4.5s4.5-7.6,4.5-13.9v-44c0-6.3-1.5-11-4.5-13.9s-7-4.5-12.2-4.5-9.2,1.5-12.2,4.5c-3,3-4.4,7.6-4.4,13.9v44c0,6.3,1.4,11,4.4,13.9s6.9,4.5,12.2,4.5h0Z"/>
    <path class="cls-1" d="M156.2,511.9c-1.4,0-2.7-.4-4.1-1.3s-2.4-2-3.1-3.6l-22.5-43.8h-13.3v41.3c0,2.2-1,3.9-3.2,5-2.1,1.1-4.5,1.7-7.2,1.7s-4.9-.6-7.1-1.7-3.2-2.8-3.2-5v-102.9c0-1.8.6-3.4,1.9-4.6s2.8-1.9,4.8-1.9h31.4c7,0,13.3,1,19,3s10.2,5.4,13.6,10.2,5.1,11.5,5.1,19.9-.9,11.3-2.7,15.6c-1.8,4.3-4.3,7.7-7.3,10.3-3.1,2.6-6.7,4.6-10.7,5.8l20.9,38.6c.2.4.3.8.5,1.4,0,.5.2.8.2,1.2,0,1.7-.7,3.4-1.9,5.1s-2.9,3-4.8,4.1c-1.9,1-4,1.6-6.1,1.6h0ZM113.2,447h17.5c5.2,0,9.3-1.3,12.4-3.8s4.6-6.8,4.6-13-1.5-10.8-4.6-13.3c-3-2.4-7.2-3.7-12.4-3.7h-17.5v33.8h0Z"/>
  </g>
</svg>