<?xml version="1.0" encoding="UTF-8"?>
<svg id="SAGGI_OMAGGIO" data-name="SAGGI OMAGGIO" xmlns="http://www.w3.org/2000/svg" version="1.1" viewBox="0 0 384 512">
  <path d="M86.75,280.96c-25.67,0-51.33-.22-76.99.15-7.15.1-9.51-1.62-9.54-9.3-.06-19.94-.05-114.44,0-135.77.06-26.29,14.11-43.24,39.77-46.77,6.32-.87,7.46-2.28,6.28-8.29-6.36-32.46,7.63-61.11,35.95-74.53,28.22-13.37,61.74-5.25,82.41,20.32,8.06,9.97,15.64,20.34,23.12,30.75,3.32,4.62,5.64,4.27,8.84,0,7.08-9.48,14.53-18.67,21.63-28.14,19.78-26.4,52.54-36.34,80.32-24.25,30.65,13.34,46.07,41.99,39.59,75.46-1.36,7-.08,7.79,6.38,8.76,25.23,3.81,39.45,20.34,39.82,46.1.3,20.72.15,116.09,0,136.76.14,7.26-2.86,8.85-9.35,8.83-52.97-.16-105.95-.21-158.92.05-7.28.04-8.61-2.73-8.51-9.3.37-23.35-.05-121.3.26-144.66.09-7.07-1.92-9.85-9.48-9.88-21.69-.11-21.69-.42-21.69,20.83,0,19.41-.33,113.41.16,132.81.2,7.82-2.31,10.32-10.09,10.21-26.65-.38-53.3-.14-79.95-.14ZM87.81,65.57c-.23,11.06,8.51,21.85,19.68,22.6,14.09.95,28.26.58,42.4.71,3.49.03,6.53-.67,3.18-4.94-9.1-11.64-17.82-23.65-27.7-34.59-6.3-6.97-15.25-7.1-23.83-3.63-8.94,3.61-12.39,11.2-13.74,19.85ZM254.39,88.64c7.53,0,14.56.26,22.02-.4,10.45-.92,17.63-8.25,18.99-18.14,1.55-11.27-2.8-19.56-12.6-23.99-10.13-4.58-19.58-2.57-26.45,5.84-4.34,5.32-8.56,10.76-12.65,16.28-4.61,6.22-11.98,16.5-10.19,18.58,2.6,3.03,12.9,1.97,20.87,1.83Z" fill="#213251" stroke-width="0"/>
  <path d="M88.89,312.24c26.29,0,52.59.27,78.87-.18,7.03-.12,9.06,1.85,9.01,8.76-.29,33.52-.27,149.9,0,183.42.05,6.48-1.94,8.32-8.46,8.27-41.08-.3-82.16-.03-123.25-.19-26.21-.1-44.68-18.62-44.78-44.76-.08-21.69-.12-126.11,0-147.93.03-6.17,1.74-7.63,7.77-7.55,26.95.35,53.9.15,80.85.15Z" fill="#213251" stroke-width="0"/>
  <path d="M295.94,312.24c26.63,0,53.27.21,79.89-.15,6.47-.09,8.47,1.55,8.5,8.2.08,20.53.23,123.73,0,144.01-.38,30.83-18.15,48.03-48.93,48.05-40.11.03-80.23-.17-120.34.19-6.26.06-7.58-1.49-7.52-7.52.31-34.19.31-151.24,0-185.43-.05-6.02,1.24-7.64,7.52-7.53,26.95.44,53.92.19,80.88.19Z" fill="#213251" stroke-width="0"/>
</svg>