<?xml version="1.0" encoding="UTF-8"?>
<svg id="acquisto" xmlns="http://www.w3.org/2000/svg" version="1.1" viewBox="0 0 384 512">
  <path d="M218.45,192.95c53.31,0,96.45-43.14,96.45-96.45S271.75.06,218.45.06s-96.45,43.14-96.45,96.45,43.15,96.45,96.45,96.45ZM207.02,24.21c7.61-7.45,17.13-7.77,24.74-.32h.08c20.81,20.17,41.3,40.74,61.55,61.47,6.57,6.72,6.8,14.89,1.85,22.34-3.52,5.21-7.92,7.77-14,7.61-5.68-.08-11.05-2.64-15.05-6.57-9.05-8.89-18.09-17.85-27.14-26.81-1.68,25.21-1.92,48.99-1.68,72.67.16.88.16-7.53.16,2.64s-8.24,18.41-18.41,18.41-18.41-8.24-18.41-18.41c0-.8.08-1.52.16-2.24.16-22.57,0-44.98-.08-67.55l-.4-2.72c-.55-1.92-1.2-2-2-.8-9.2,8.89-18.01,18.01-27.53,26.49-10.38,9.26-25.22,5.46-29.58-7.36h-.03v-.08s.02.06.03.08h.22c-2.32-6.96-.32-13.04,4.56-17.93,20.17-20.49,40.42-40.82,60.99-60.91h-.02Z" fill="#1e3050" stroke-width="0"/>
  <g id="Livello_2" data-name="Livello 2">
    <g>
      <circle cx="118.49" cy="479.75" r="32.23" transform="translate(-366.13 576.38) rotate(-87.4)" fill="#1e3050" stroke-width="0"/>
      <path d="M356.98,209.62l-19.54-.31-256.49.31c-6.11-12.89-19.14-21.49-33.98-21.49h-30.56c-8.93,0-16.12,7.19-16.12,16.12s7.19,16.12,16.12,16.12h30.56c2.55,0,4.77,1.82,5.31,4.37l34.65,162c4.37,22.84,24.31,39.29,47.48,39.29h193.61c8.93,0,16.12-7.19,16.12-16.12s-7.19-16.12-16.12-16.12h-193.61c-7.72,0-14.38-5.51-15.85-13.1l-3.62-19.14h193.76c21.89,0,41.04-14.64,46.68-35.8l27.54-82.28c4.64-17.06-8.26-33.85-25.92-33.85h-.02Z" fill="#1e3050" stroke-width="0"/>
      <circle cx="311.92" cy="479.75" r="32.23" fill="#1e3050" stroke-width="0"/>
    </g>
  </g>
</svg>